# Blender v2.92.0 OBJ File: 'wheel.blend'
# www.blender.org
mtllib body.mtl
o Cube
v -1.000000 0.134041 -0.000000
v -1.000000 0.134043 -2.000000
v -1.000000 1.000001 -2.000000
v 0.000000 0.134041 -0.000000
v 0.000000 0.134043 -2.000000
v 0.000000 1.000001 -2.000000
v -0.949130 0.648967 -0.071942
v -0.949130 0.942210 -0.658428
v -0.050870 0.942210 -0.658428
v -0.050870 0.648967 -0.071942
v 0.000000 0.634814 0.000000
v 0.000000 1.000000 -0.730370
v -1.000000 1.000000 -0.730370
v -1.000000 0.634814 0.000000
vt 0.616007 0.762717
vt 0.616007 0.987282
vt 0.542696 0.987282
vt 0.542696 0.762718
vt 0.625000 0.500000
vt 0.875000 0.500000
vt 0.875000 0.658704
vt 0.625000 0.658704
vt 0.375000 0.250000
vt 0.625000 0.250000
vt 0.375000 0.500000
vt 0.375000 0.000000
vt 0.533704 0.000000
vt 0.625000 0.091296
vt 0.533704 0.750000
vt 0.375000 0.750000
vt 0.533704 1.000000
vt 0.375000 1.000000
vt 0.625000 0.750000
vt 0.625000 1.000000
vn 0.0000 0.8944 0.4472
vn 0.0000 1.0000 0.0000
vn 0.0000 0.0000 -1.0000
vn -1.0000 0.0000 0.0000
vn 1.0000 0.0000 0.0000
vn 0.0000 -0.0000 1.0000
vn 0.0000 -1.0000 -0.0000
vn -0.3582 0.8351 0.4175
vn 0.0000 0.7796 0.6263
vn 0.3582 0.8351 0.4175
vn 0.0000 0.9812 0.1930
usemtl Windshield
s off
f 9/1/1 8/2/1 7/3/1 10/4/1
usemtl Body
f 6/5/2 3/6/2 13/7/2 12/8/2
f 2/9/3 3/10/3 6/5/3 5/11/3
f 1/12/4 14/13/4 13/14/4 3/10/4 2/9/4
f 5/11/5 6/5/5 12/8/5 11/15/5 4/16/5
f 4/16/6 11/15/6 14/17/6 1/18/6
f 2/9/7 5/11/7 4/16/7 1/18/7
f 9/1/8 10/4/8 11/15/8 12/19/8
f 8/2/9 9/1/9 12/19/9 13/20/9
f 7/3/10 8/2/10 13/20/10 14/17/10
f 10/4/11 7/3/11 14/17/11 11/15/11
